<?xml version="1.0" encoding="UTF-8" standalone="no"?>
<!DOCTYPE svg PUBLIC "-//W3C//DTD SVG 1.1//EN" "http://www.w3.org/Graphics/SVG/1.1/DTD/svg11.dtd">
<svg width="100%" height="100%" viewBox="0 0 1024 1024" version="1.1" xmlns="http://www.w3.org/2000/svg" xmlns:xlink="http://www.w3.org/1999/xlink" xml:space="preserve" xmlns:serif="http://www.serif.com/" style="fill-rule:evenodd;clip-rule:evenodd;stroke-linecap:round;stroke-linejoin:round;stroke-miterlimit:1.5;">
    <g transform="matrix(0.84603,0,0,0.84603,79.555,83.649)">
        <path d="M1024,141.84C1024,104.222 1009.06,68.145 982.456,41.54C955.856,14.94 919.779,-0.004 882.156,-0.004L141.836,-0.004C104.218,-0.004 68.141,14.94 41.536,41.54C14.931,68.14 -0.008,104.217 -0.008,141.84L-0.008,882.16C-0.008,919.778 14.936,955.855 41.536,982.46C68.136,1009.06 104.213,1024 141.836,1024L882.156,1024C919.774,1024 955.851,1009.06 982.456,982.46C1009.06,955.86 1024,919.783 1024,882.16L1024,141.84Z"/>
        <path d="M1024,0L0,0L0,882.16C0,919.778 14.944,955.855 41.544,982.46C68.144,1009.06 104.221,1024 141.844,1024L1024,1024L1024,0.004L1024,0Z" style="fill:none;"/>
        <path d="M1024,141.84C1024,104.222 1009.06,68.145 982.456,41.54C955.856,14.94 919.779,-0.004 882.156,-0.004L141.836,-0.004C104.218,-0.004 68.141,14.94 41.536,41.54C14.931,68.14 -0.008,104.217 -0.008,141.84L-0.008,882.16C-0.008,919.778 14.936,955.855 41.536,982.46C68.136,1009.06 104.213,1024 141.836,1024L882.156,1024C919.774,1024 955.851,1009.06 982.456,982.46C1009.06,955.86 1024,919.783 1024,882.16L1024,141.84Z"/>
        <rect x="-20" y="-20" width="1064" height="1064" style="fill:none;"/>
        <rect x="60" y="60" width="904" height="904"/>
        <path d="M1024,141.84C1024,104.222 1009.06,68.145 982.456,41.54C955.856,14.94 919.779,-0.004 882.156,-0.004L141.836,-0.004C104.218,-0.004 68.141,14.94 41.536,41.54C14.931,68.14 -0.008,104.217 -0.008,141.84L-0.008,882.16C-0.008,919.778 14.936,955.855 41.536,982.46C68.136,1009.06 104.213,1024 141.836,1024L882.156,1024C919.774,1024 955.851,1009.06 982.456,982.46C1009.06,955.86 1024,919.783 1024,882.16L1024,141.84Z" style="fill:url(#_Linear1);"/>
    </g>
    <g transform="matrix(0.83484,0,0,0.85847,79.028,80.819)">
        <g transform="matrix(1,0,0,1,-1,0)">
            <path d="M166.66,239.13L165.296,935.77" style="fill:none;stroke:white;stroke-width:29.53px;"/>
        </g>
        <path d="M165.29,935.78L856.61,935.196" style="fill:none;stroke:white;stroke-width:29.53px;"/>
        <path d="M856.62,935.19L855.45,87.94" style="fill:none;stroke:white;stroke-width:29.53px;"/>
        <g transform="matrix(1,0,0,1,0,-1)">
            <path d="M855.44,87.943L314.21,85.116" style="fill:none;stroke:white;stroke-width:29.53px;"/>
            <path d="M165.98,240.53L312,239.521" style="fill:none;stroke:white;stroke-width:29.53px;"/>
        </g>
        <g transform="matrix(0.99925,0.038214,-0.03873,0.98635,9.903,-9.9094)">
            <path d="M305.91,84.94L311.994,239.52" style="fill:none;stroke:white;stroke-width:29.7px;"/>
        </g>
        <g transform="matrix(1,0,0,1,0,1)">
            <path d="M313.18,83.266L166.32,238.796" style="fill:none;stroke:white;stroke-width:29.53px;"/>
        </g>
    </g>
    <g transform="matrix(0.84603,0,0,0.84603,79.555,83.649)">
        <path d="M692.1,513.4C724.4,513.4 750.5,487.2 750.5,455L750.5,331.9C750.5,299.6 724.3,273.5 692.1,273.5L569.1,273.5C536.8,273.5 510.7,299.7 510.7,331.9L510.7,470.8C510.7,482 506.3,492.7 498.4,500.6C490.5,508.5 479.8,512.9 468.6,512.9L329.5,512.9C297.2,512.9 271.1,539.1 271.1,571.3L271.1,694.4C271.1,726.7 297.3,752.8 329.5,752.8L452.6,752.8C484.9,752.8 511,726.6 511,694.4L511,550.3C511,540.5 514.9,531.1 521.8,524.2C528.7,517.3 538.1,513.4 547.9,513.4L692.1,513.4ZM664.2,591.7C677.7,591.7 688.7,602.7 688.7,616.2L688.7,675.2C688.7,688.7 677.7,699.7 664.2,699.7L605.2,699.7C591.7,699.7 580.7,688.7 580.7,675.2L580.7,616.2C580.7,602.7 591.7,591.7 605.2,591.7L664.2,591.7ZM424.3,333.7C437.8,333.7 448.8,344.7 448.8,358.2L448.8,417.2C448.8,430.7 437.8,441.7 424.3,441.7L365.3,441.7C351.8,441.7 340.8,430.7 340.8,417.2L340.8,358.2C340.8,344.7 351.8,333.7 365.3,333.7L424.3,333.7Z" style="fill:url(#_Radial2);"/>
    </g>
    <defs>
        <linearGradient id="_Linear1" x1="0" y1="0" x2="1" y2="0" gradientUnits="userSpaceOnUse" gradientTransform="matrix(6.27019e-14,1024,-1024,6.27019e-14,516.086,-2.50808e-16)"><stop offset="0" style="stop-color:rgb(30,151,225);stop-opacity:0.6"/><stop offset="1" style="stop-color:rgb(30,136,203);stop-opacity:0.2"/></linearGradient>
        <radialGradient id="_Radial2" cx="0" cy="0" r="1" gradientUnits="userSpaceOnUse" gradientTransform="matrix(-239.74,239.74,239.74,239.74,510.83,513.15)"><stop offset="0" style="stop-color:white;stop-opacity:1"/><stop offset="1" style="stop-color:white;stop-opacity:1"/></radialGradient>
    </defs>
</svg>
